<svg width="24" height="24" viewBox="0 0 24 24" fill="none" xmlns="http://www.w3.org/2000/svg">
<g clip-path="url(#clip0)">
<path d="M2.30353 8.38426C2.60712 8.59849 3.52228 9.23477 5.04903 10.2928C6.57583 11.3508 7.74547 12.1654 8.55799 12.7367C8.64725 12.7993 8.83691 12.9354 9.12704 13.1453C9.41722 13.3552 9.65834 13.5249 9.85019 13.6543C10.0422 13.7837 10.2743 13.9288 10.5468 14.0895C10.8191 14.25 11.0758 14.3708 11.3169 14.4507C11.558 14.5313 11.7812 14.5712 11.9865 14.5712H12H12.0135C12.2188 14.5712 12.4421 14.5312 12.6832 14.4507C12.9242 14.3708 13.1812 14.2499 13.4533 14.0895C13.7256 13.9286 13.9577 13.7837 14.1497 13.6543C14.3417 13.5249 14.5826 13.3552 14.8729 13.1453C15.163 12.9353 15.3528 12.7993 15.4421 12.7367C16.2634 12.1654 18.3529 10.7144 21.7099 8.38398C22.3616 7.92882 22.9062 7.3796 23.3436 6.73671C23.7814 6.0941 24 5.41997 24 4.71469C24 4.12532 23.7878 3.62081 23.3637 3.20121C22.9396 2.78151 22.4373 2.57178 21.8571 2.57178H2.14277C1.45531 2.57178 0.92627 2.80388 0.555734 3.2681C0.185245 3.73241 0 4.31277 0 5.00914C0 5.57162 0.245617 6.18116 0.736616 6.83738C1.22757 7.49364 1.75004 8.00931 2.30353 8.38426Z" fill="#A0A9B7"/>
<path d="M22.6605 9.81699C19.7323 11.799 17.5088 13.3393 15.9911 14.4376C15.4822 14.8124 15.0694 15.1051 14.7523 15.3148C14.4352 15.5246 14.0136 15.7389 13.4867 15.9575C12.96 16.1765 12.4691 16.2856 12.0137 16.2856H12H11.9866C11.5312 16.2856 11.0401 16.1765 10.5134 15.9575C9.98669 15.7389 9.56474 15.5246 9.24778 15.3148C8.93091 15.1051 8.51792 14.8124 8.00905 14.4376C6.80362 13.5537 4.58491 12.0133 1.35282 9.81699C0.843756 9.47793 0.392865 9.08928 0 8.65186V19.2855C0 19.8751 0.209731 20.3794 0.629428 20.799C1.04903 21.2188 1.55359 21.4286 2.14291 21.4286H21.8573C22.4464 21.4286 22.951 21.2188 23.3706 20.799C23.7904 20.3792 24 19.8752 24 19.2855V8.65186C23.616 9.08023 23.1697 9.46887 22.6605 9.81699Z" fill="#A0A9B7"/>
</g>
<defs>
<clipPath id="clip0">
<rect width="24" height="24" fill="white"/>
</clipPath>
</defs>
</svg>
